curl
version=1
nRows=367
nColumns=3
inDegrees=yes
endheader
time	r_shoulder_elev	r_elbow_flex
0.0000	25.300820	16.291267
0.0100	25.306933	16.387993
0.0200	25.313036	16.484636
0.0300	25.319088	16.580700
0.0400	25.325047	16.675691
0.0500	25.330872	16.769119
0.0600	25.336524	16.860503
0.0700	25.341966	16.949377
0.0800	25.347160	17.035293
0.0900	25.352075	17.117825
0.1000	25.356678	17.196572
0.1100	25.360942	17.271164
0.1200	25.364841	17.341262
0.1300	25.368354	17.406562
0.1400	25.371463	17.466798
0.1500	25.374151	17.521742
0.1600	25.376408	17.571203
0.1700	25.378225	17.615034
0.1800	25.379596	17.653125
0.1900	25.380521	17.685406
0.2000	25.381000	17.711848
0.2100	25.381038	17.732456
0.2200	25.380643	17.747277
0.2300	25.379826	17.756389
0.2400	25.378599	17.759906
0.2500	25.376980	17.757974
0.2600	25.374986	17.750769
0.2700	25.372640	17.738497
0.2800	25.369964	17.721388
0.2900	25.366986	17.699699
0.3000	25.363732	17.673709
0.3100	25.360234	17.643719
0.3200	25.356523	17.610047
0.3300	25.352632	17.573028
0.3400	25.348595	17.533014
0.3500	25.344451	17.490365
0.3600	25.340234	17.445456
0.3700	25.335983	17.398665
0.3800	25.331736	17.350377
0.3900	25.327532	17.300981
0.4000	25.323409	17.250864
0.4100	25.319404	17.200411
0.4200	25.315557	17.150001
0.4300	25.311903	17.100005
0.4400	25.308477	17.050784
0.4500	25.305313	17.002682
0.4600	25.302444	16.956030
0.4700	25.299898	16.911137
0.4800	25.297703	16.868291
0.4900	25.295883	16.827756
0.5000	25.294457	16.789768
0.5100	25.293444	16.754537
0.5200	25.292856	16.722243
0.5300	25.292702	16.693036
0.5400	25.292987	16.667035
0.5500	25.293711	16.644329
0.5600	25.294869	16.624979
0.5700	25.296452	16.609018
0.5800	25.298446	16.596452
0.5900	25.300833	16.587264
0.6000	25.303590	16.581416
0.6100	25.306691	16.578852
0.6200	25.310104	16.579501
0.6300	25.313795	16.583280
0.6400	25.317726	16.590096
0.6500	25.321857	16.599852
0.6600	25.326145	16.612445
0.6700	25.330547	16.627774
0.6800	25.335016	16.645735
0.6900	25.339507	16.666228
0.7000	25.343974	16.689152
0.7100	25.348373	16.714410
0.7200	25.352659	16.741903
0.7300	25.356791	16.771534
0.7400	25.360730	16.803200
0.7500	25.364440	16.836797
0.7600	25.367888	16.872211
0.7700	25.371045	16.909321
0.7800	25.373886	16.947993
0.7900	25.376389	16.988082
0.8000	25.378540	17.029428
0.8100	25.380326	17.071854
0.8200	25.381740	17.115172
0.8300	25.382780	17.159178
0.8400	25.383449	17.203656
0.8500	25.383754	17.248379
0.8600	25.383710	17.293114
0.8700	25.383334	17.337624
0.8800	25.382652	17.381675
0.8900	25.381693	17.425036
0.9000	25.380494	17.467489
0.9100	25.379098	17.508830
0.9200	25.377553	17.548879
0.9300	25.375917	17.587481
0.9400	25.374250	17.624509
0.9500	25.372623	17.659872
0.9600	25.371108	17.693513
0.9700	25.369786	17.725412
0.9800	25.368740	17.755585
0.9900	25.368059	17.784086
1.0000	25.367833	17.810996
1.0100	25.368150	17.836428
1.0200	25.369102	17.860514
1.0300	25.370773	17.883404
1.0400	25.373245	17.905253
1.0500	25.376590	17.926215
1.0600	25.380871	17.946433
1.0700	25.386138	17.966029
1.0800	25.392425	17.985094
1.0900	25.399749	18.003680
1.1000	25.408103	18.021789
1.1100	25.417460	18.039368
1.1200	25.427769	18.056300
1.1300	25.438949	18.072404
1.1400	25.450894	18.087427
1.1500	25.463469	18.101047
1.1600	25.476511	18.112875
1.1700	25.489831	18.122459
1.1800	25.503214	18.129290
1.1900	25.516420	18.132816
1.2000	25.529191	18.132450
1.2100	25.541250	18.127585
1.2200	25.552310	18.117614
1.2300	25.562075	18.101947
1.2400	25.570246	18.080029
1.2500	25.576527	18.051366
1.2600	25.580631	18.015543
1.2700	25.582285	17.972251
1.2800	25.581233	17.921303
1.2900	25.577245	17.862663
1.3000	25.570119	17.796460
1.3100	25.559686	17.723013
1.3200	25.545813	17.642842
1.3300	25.528405	17.556690
1.3400	25.507409	17.465530
1.3500	25.482813	17.370577
1.3600	25.454649	17.273296
1.3700	25.422990	17.175404
1.3800	25.387951	17.078872
1.3900	25.349688	16.985927
1.4000	25.308396	16.899039
1.4100	25.264306	16.820923
1.4200	25.217679	16.754521
1.4300	25.168812	16.702995
1.4400	25.118024	16.669709
1.4500	25.065661	16.658211
1.4600	25.012089	16.672216
1.4700	24.957691	16.715579
1.4800	24.902864	16.792271
1.4900	24.848016	16.906355
1.5000	24.793564	17.061953
1.5100	24.739931	17.263216
1.5200	24.687540	17.514291
1.5300	24.636817	17.819281
1.5400	24.588184	18.182215
1.5500	24.542060	18.607001
1.5600	24.498860	19.097392
1.5700	24.458989	19.656939
1.5800	24.422844	20.288951
1.5900	24.390814	20.996453
1.6000	24.363276	21.782142
1.6100	24.340598	22.648346
1.6200	24.323137	23.596983
1.6300	24.311239	24.629528
1.6400	24.305242	25.746975
1.6500	24.305475	26.949809
1.6600	24.312257	28.237984
1.6700	24.325904	29.610904
1.6800	24.346724	31.067411
1.6900	24.375020	32.605783
1.7000	24.411094	34.223736
1.7100	24.455241	35.918434
1.7200	24.507756	37.686514
1.7300	24.568930	39.524108
1.7400	24.639051	41.426881
1.7500	24.718401	43.390070
1.7600	24.807256	45.408537
1.7700	24.905885	47.476822
1.7800	25.014544	49.589201
1.7900	25.133477	51.739752
1.8000	25.262906	53.922423
1.8100	25.403032	56.131095
1.8200	25.554028	58.359659
1.8300	25.716030	60.602078
1.8400	25.889139	62.852456
1.8500	26.073405	65.105103
1.8600	26.268830	67.354590
1.8700	26.475355	69.595808
1.8800	26.692857	71.824007
1.8900	26.921143	74.034842
1.9000	27.159947	76.224399
1.9100	27.408921	78.389224
1.9200	27.667636	80.526331
1.9300	27.935577	82.633210
1.9400	28.212143	84.707832
1.9500	28.496647	86.748632
1.9600	28.788317	88.754500
1.9700	29.086298	90.724761
1.9800	29.389659	92.659141
1.9900	29.697395	94.557746
2.0000	30.008439	96.421014
2.0100	30.321664	98.249681
2.0200	30.635900	100.044734
2.0300	30.949938	101.807358
2.0400	31.262548	103.538893
2.0500	31.572484	105.240775
2.0600	31.878502	106.914489
2.0700	32.179370	108.561511
2.0800	32.473880	110.183260
2.0900	32.760865	111.781048
2.1000	33.039206	113.356033
2.1100	33.307849	114.909175
2.1200	33.565814	116.441194
2.1300	33.812206	117.952538
2.1400	34.046226	119.443349
2.1500	34.267179	120.913443
2.1600	34.474483	122.362284
2.1700	34.667673	123.788979
2.1800	34.846407	125.192267
2.1900	35.010469	126.570523
2.2000	35.159770	127.921768
2.2100	35.294347	128.000000
2.2200	35.414359	128.000000
2.2300	35.520089	128.000000
2.2400	35.611931	128.000000
2.2500	35.690388	128.000000
2.2600	35.756062	128.000000
2.2700	35.809647	128.000000
2.2800	35.851915	128.000000
2.2900	35.883710	128.000000
2.3000	35.905933	128.000000
2.3100	35.919533	128.000000
2.3200	35.925495	128.000000
2.3300	35.924825	128.000000
2.3400	35.918543	128.000000
2.3500	35.907670	128.000000
2.3600	35.893215	128.000000
2.3700	35.876168	128.000000
2.3800	35.857487	128.000000
2.3900	35.838090	128.000000
2.4000	35.818850	128.000000
2.4100	35.800582	128.000000
2.4200	35.784039	128.000000
2.4300	35.769910	128.000000
2.4400	35.758807	128.000000
2.4500	35.751272	128.000000
2.4600	35.747766	128.000000
2.4700	35.748671	128.000000
2.4800	35.754290	128.000000
2.4900	35.764845	128.000000
2.5000	35.780482	128.000000
2.5100	35.801268	128.000000
2.5200	35.827199	128.000000
2.5300	35.858202	128.000000
2.5400	35.894136	128.000000
2.5500	35.934802	128.000000
2.5600	35.979943	128.000000
2.5700	36.029253	128.000000
2.5800	36.082382	128.000000
2.5900	36.138939	128.000000
2.6000	36.198502	128.000000
2.6100	36.260622	128.000000
2.6200	36.324829	128.000000
2.6300	36.390637	128.000000
2.6400	36.457551	126.994789
2.6500	36.525069	125.728936
2.6600	36.592691	124.447373
2.6700	36.659919	123.152079
2.6800	36.726264	121.844760
2.6900	36.791247	120.526848
2.7000	36.854401	119.199505
2.7100	36.915276	117.863632
2.7200	36.973439	116.519884
2.7300	37.028475	115.168679
2.7400	37.079990	113.810222
2.7500	37.127607	112.444519
2.7600	37.170972	111.071404
2.7700	37.209751	109.690560
2.7800	37.243632	108.301542
2.7900	37.272321	106.903809
2.8000	37.295550	105.496741
2.8100	37.313067	104.079674
2.8200	37.324644	102.651916
2.8300	37.330075	101.212780
2.8400	37.329176	99.761602
2.8500	37.321782	98.297763
2.8600	37.307753	96.820710
2.8700	37.286972	95.329975
2.8800	37.259341	93.825186
2.8900	37.224786	92.306083
2.9000	37.183254	90.772530
2.9100	37.134712	89.224521
2.9200	37.079145	87.662187
2.9300	37.016557	86.085799
2.9400	36.946965	84.495775
2.9500	36.870401	82.892672
2.9600	36.786907	81.277193
2.9700	36.696531	79.650177
2.9800	36.599324	78.012596
2.9900	36.495340	76.365549
3.0000	36.384628	74.710251
3.0100	36.267229	73.048026
3.0200	36.143178	71.380293
3.0300	36.012491	69.708562
3.0400	35.875173	68.034413
3.0500	35.731207	66.359494
3.0600	35.580559	64.685503
3.0700	35.423170	63.014182
3.0800	35.258961	61.347303
3.0900	35.087833	59.686660
3.1000	34.909664	58.034061
3.1100	34.724315	56.391316
3.1200	34.531634	54.760231
3.1300	34.331456	53.142601
3.1400	34.123615	51.540199
3.1500	33.907944	49.954776
3.1600	33.684286	48.388046
3.1700	33.452500	46.841687
3.1800	33.212471	45.317329
3.1900	32.964117	43.816549
3.2000	32.707400	42.340866
3.2100	32.442333	40.891733
3.2200	32.168985	39.470532
3.2300	31.887496	38.078566
3.2400	31.598078	36.717058
3.2500	31.301018	35.387140
3.2600	30.996691	34.089858
3.2700	30.685553	32.826162
3.2800	30.368148	31.596908
3.2900	30.045104	30.402861
3.3000	29.717135	29.244692
3.3100	29.385030	28.122986
3.3200	29.049654	27.038243
3.3300	28.711935	25.990891
3.3400	28.372857	24.981283
3.3500	28.033451	24.009714
3.3600	27.694784	23.076421
3.3700	27.357942	22.181595
3.3800	27.024023	21.325382
3.3900	26.694123	20.507887
3.4000	26.369321	19.729181
3.4100	26.050670	18.989295
3.4200	25.739181	18.288223
3.4300	25.435817	17.625912
3.4400	25.141476	17.002262
3.4500	24.856988	16.417114
3.4600	24.583103	15.870245
3.4700	24.320483	15.361355
3.4800	24.069700	14.890056
3.4900	23.831228	14.455868
3.5000	23.605441	14.058201
3.5100	23.392611	13.696355
3.5200	23.192908	13.369506
3.5300	23.006402	13.076703
3.5400	22.833062	12.816866
3.5500	22.672764	12.588780
3.5600	22.525292	12.391099
3.5700	22.390346	12.222348
3.5800	22.267546	12.080928
3.5900	22.156440	11.965121
3.6000	22.056514	11.873100
3.6100	21.967198	11.802943
3.6200	21.887871	11.752641
3.6300	21.817876	11.720120
3.6400	21.756526	11.703250
3.6500	21.703110	11.699872
3.6600	21.656904	11.707808
